<mxfile host="app.diagrams.net" modified="2023-01-04T03:57:54.600Z" agent="5.0 (Windows NT 10.0; Win64; x64) AppleWebKit/537.36 (KHTML, like Gecko) Chrome/108.0.0.0 Safari/537.36" version="20.8.1" etag="2Rm9Bn5zm_-UZ39dQ9yA" type="github">
  <diagram id="btScNJHasSuVVw_Kotm_" name="Page-1">
    <mxGraphModel dx="724" dy="430" grid="1" gridSize="10" guides="1" tooltips="1" connect="1" arrows="1" fold="1" page="1" pageScale="1" pageWidth="850" pageHeight="1100" math="0" shadow="0">
      <root>
        <mxCell id="0" />
        <mxCell id="1" parent="0" />
        <mxCell id="t2bLfwigdrreFum6Z7dY-7" style="edgeStyle=orthogonalEdgeStyle;rounded=0;orthogonalLoop=1;jettySize=auto;html=1;exitX=0.5;exitY=1;exitDx=0;exitDy=0;entryX=0.5;entryY=0;entryDx=0;entryDy=0;" edge="1" parent="1" source="t2bLfwigdrreFum6Z7dY-1" target="t2bLfwigdrreFum6Z7dY-2">
          <mxGeometry relative="1" as="geometry" />
        </mxCell>
        <mxCell id="t2bLfwigdrreFum6Z7dY-1" value="Begin" style="ellipse;whiteSpace=wrap;html=1;" vertex="1" parent="1">
          <mxGeometry x="120" y="80" width="120" height="80" as="geometry" />
        </mxCell>
        <mxCell id="t2bLfwigdrreFum6Z7dY-8" style="edgeStyle=orthogonalEdgeStyle;rounded=0;orthogonalLoop=1;jettySize=auto;html=1;exitX=0.5;exitY=1;exitDx=0;exitDy=0;entryX=0.5;entryY=0;entryDx=0;entryDy=0;" edge="1" parent="1" source="t2bLfwigdrreFum6Z7dY-2" target="t2bLfwigdrreFum6Z7dY-3">
          <mxGeometry relative="1" as="geometry" />
        </mxCell>
        <mxCell id="t2bLfwigdrreFum6Z7dY-2" value="int max := a[0]" style="rounded=0;whiteSpace=wrap;html=1;" vertex="1" parent="1">
          <mxGeometry x="120" y="200" width="120" height="60" as="geometry" />
        </mxCell>
        <mxCell id="t2bLfwigdrreFum6Z7dY-9" style="edgeStyle=orthogonalEdgeStyle;rounded=0;orthogonalLoop=1;jettySize=auto;html=1;exitX=0.5;exitY=1;exitDx=0;exitDy=0;entryX=0.5;entryY=0;entryDx=0;entryDy=0;" edge="1" parent="1" source="t2bLfwigdrreFum6Z7dY-3" target="t2bLfwigdrreFum6Z7dY-5">
          <mxGeometry relative="1" as="geometry" />
        </mxCell>
        <mxCell id="t2bLfwigdrreFum6Z7dY-3" value="int i = 1;" style="rounded=0;whiteSpace=wrap;html=1;" vertex="1" parent="1">
          <mxGeometry x="120" y="290" width="120" height="60" as="geometry" />
        </mxCell>
        <mxCell id="t2bLfwigdrreFum6Z7dY-5" value="max &amp;lt; a[i]" style="rhombus;whiteSpace=wrap;html=1;" vertex="1" parent="1">
          <mxGeometry x="120" y="380" width="120" height="110" as="geometry" />
        </mxCell>
        <mxCell id="t2bLfwigdrreFum6Z7dY-10" value="max = a[i]" style="whiteSpace=wrap;html=1;" vertex="1" parent="1">
          <mxGeometry x="320" y="405" width="120" height="60" as="geometry" />
        </mxCell>
        <mxCell id="t2bLfwigdrreFum6Z7dY-15" value="" style="endArrow=classic;html=1;rounded=0;exitX=1;exitY=0.5;exitDx=0;exitDy=0;entryX=0;entryY=0.5;entryDx=0;entryDy=0;" edge="1" parent="1" source="t2bLfwigdrreFum6Z7dY-5" target="t2bLfwigdrreFum6Z7dY-10">
          <mxGeometry relative="1" as="geometry">
            <mxPoint x="370" y="320" as="sourcePoint" />
            <mxPoint x="470" y="320" as="targetPoint" />
          </mxGeometry>
        </mxCell>
        <mxCell id="t2bLfwigdrreFum6Z7dY-16" value="Yes" style="edgeLabel;resizable=0;html=1;align=center;verticalAlign=middle;" connectable="0" vertex="1" parent="t2bLfwigdrreFum6Z7dY-15">
          <mxGeometry relative="1" as="geometry" />
        </mxCell>
      </root>
    </mxGraphModel>
  </diagram>
</mxfile>
